<svg width="56" height="12" viewBox="0 0 56 12" fill="none" xmlns="http://www.w3.org/2000/svg">
<path d="M32.6498 9V2.634H35.2478V4.116L35.0738 3.966H35.3018C35.4898 3.478 35.8118 3.086 36.2678 2.79C36.7278 2.494 37.2558 2.346 37.8518 2.346C38.0678 2.346 38.2998 2.368 38.5478 2.412C38.7998 2.456 39.0598 2.528 39.3278 2.628C39.5958 2.724 40.2 3 40.2 3C40.2 3 39.8278 3.21094 39.3278 3.71094C38.8278 4.21094 38.7 4.806 38.7 4.806C38.46 4.722 38.1198 4.662 37.9118 4.626C37.7038 4.59 37.5178 4.572 37.3538 4.572C36.7458 4.572 36.2618 4.744 35.9018 5.088C35.5458 5.428 35.3678 5.912 35.3678 6.54V9H32.6498Z" fill="currentColor"/>
<path d="M27.3822 9.288C25.8222 9.288 24.6262 8.958 23.7942 8.298C22.9662 7.638 22.5522 6.816 22.5522 5.832C22.5522 4.832 22.9902 4.002 23.8662 3.342C24.7462 2.678 25.9162 2.346 27.3762 2.346C28.7322 2.346 29.8182 2.66 30.6342 3.288C31.4542 3.916 31.8642 4.702 31.8642 5.646V6.438H23.8122V5.304H29.4102C29.3822 4.992 29.1942 4.732 28.8462 4.524C28.5022 4.316 28.0182 4.212 27.3942 4.212C26.6742 4.212 26.1242 4.35 25.7442 4.626C25.3642 4.898 25.1742 5.292 25.1742 5.808C25.1742 6.292 25.3822 6.682 25.7982 6.978C26.2182 7.274 26.8142 7.422 27.5862 7.422C27.9182 7.422 28.2202 7.404 28.4922 7.368C28.7642 7.328 29.0262 7.276 29.2782 7.212C29.5342 7.148 29.9042 7.03 30.3882 6.858L31.2582 8.46C30.6942 8.716 30.2422 8.892 29.9022 8.988C29.5662 9.084 29.1902 9.158 28.7742 9.21C28.3582 9.262 27.8942 9.288 27.3822 9.288Z" fill="currentColor"/>
<path d="M14.0106 11.622L16.6566 8.004V8.91L12.5046 2.634H15.6126L17.5866 5.844L17.8086 6.246H17.8626L18.0966 5.844L20.0826 2.634H23.1486L17.0046 11.622H14.0106Z" fill="currentColor"/>
<path d="M6.6435 9.276C5.5515 9.276 4.7275 9.096 4.1715 8.736C3.6195 8.376 3.3435 7.858 3.3435 7.182C3.3435 6.474 3.6755 5.938 4.3395 5.574C5.0075 5.21 5.9995 5.028 7.3155 5.028C7.9075 5.028 8.4275 5.068 8.8755 5.148C9.3235 5.224 9.7055 5.308 10.0215 5.4V5.178C10.0215 4.874 9.8215 4.64 9.4215 4.476C9.0215 4.312 8.4735 4.23 7.7775 4.23C7.4295 4.23 7.0855 4.248 6.7455 4.284C6.4095 4.316 6.0795 4.368 5.7555 4.44C5.4355 4.508 5.1515 4.586 4.9035 4.674C4.6555 4.758 4.5315 4.8 4.5315 4.8L3.8175 3.12C3.8175 3.12 3.9595 3.07 4.2435 2.97C4.5275 2.866 4.8935 2.762 5.3415 2.658C5.7895 2.554 6.2375 2.474 6.6855 2.418C7.1375 2.362 7.5955 2.334 8.0595 2.334C9.6795 2.334 10.8635 2.568 11.6115 3.036C12.3635 3.5 12.7395 4.234 12.7395 5.238V9H10.1835V7.818L10.5015 8.238H10.1235C9.7075 8.542 9.1995 8.792 8.5995 8.988C8.0035 9.18 7.3515 9.276 6.6435 9.276ZM7.6575 7.62C8.2455 7.62 8.7535 7.538 9.1815 7.374C9.6135 7.206 9.8955 6.998 10.0275 6.75V6.546C9.7515 6.482 9.4195 6.43 9.0315 6.39C8.6475 6.346 8.2435 6.324 7.8195 6.324C7.2635 6.324 6.8355 6.382 6.5355 6.498C6.2355 6.61 6.0855 6.778 6.0855 7.002C6.0855 7.226 6.2275 7.386 6.5115 7.482C6.7995 7.574 7.1815 7.62 7.6575 7.62Z" fill="currentColor"/>
<path d="M0 8.79V0H2.718V8.79H0Z" fill="currentColor"/>
<path d="M39 5.48959C39 4.41658 39.6571 3.56558 40.9712 2.93657C42.2929 2.31219 44.1539 2 46.5543 2L48.4571 2C50.8575 2 52.7147 2.31219 54.0288 2.93657C55.3429 3.56558 56 4.4189 56 5.49653C56 6.57417 55.3429 7.42749 54.0288 8.05649C52.7147 8.6855 50.8613 9 48.4685 9H46.5543C44.1539 9 42.2929 8.68318 40.9712 8.04955C39.6571 7.41592 39 6.5626 39 5.48959ZM42.2587 5.49653C42.2587 5.93591 42.574 6.26891 43.2044 6.49554C43.8425 6.72679 44.7806 6.84242 46.0188 6.84242H48.9926C50.2308 6.84242 51.1651 6.7291 51.7956 6.50248C52.4261 6.27585 52.7413 5.94054 52.7413 5.49653C52.7413 5.05715 52.4261 4.72415 51.7956 4.49752C51.1651 4.2709 50.2308 4.15758 48.9926 4.15758L46.0188 4.15758C44.7806 4.15758 43.8425 4.27089 43.2044 4.49752C42.574 4.72877 42.2587 5.06178 42.2587 5.49653Z" fill="currentColor"/>
</svg>
